<svg id="visual" viewBox="0 0 1920 1080" width="1920" height="1080" xmlns="http://www.w3.org/2000/svg" xmlns:xlink="http://www.w3.org/1999/xlink" version="1.1"><rect x="0" y="0" width="1920" height="1080" fill="#174264"></rect><path d="M0 474L45.7 458.7C91.3 443.3 182.7 412.7 274.2 410.8C365.7 409 457.3 436 548.8 435.5C640.3 435 731.7 407 823 414.5C914.3 422 1005.7 465 1097 461.5C1188.3 458 1279.7 408 1371.2 404.2C1462.7 400.3 1554.3 442.7 1645.8 452.8C1737.3 463 1828.7 441 1874.3 430L1920 419L1920 1081L1874.3 1081C1828.7 1081 1737.3 1081 1645.8 1081C1554.3 1081 1462.7 1081 1371.2 1081C1279.7 1081 1188.3 1081 1097 1081C1005.7 1081 914.3 1081 823 1081C731.7 1081 640.3 1081 548.8 1081C457.3 1081 365.7 1081 274.2 1081C182.7 1081 91.3 1081 45.7 1081L0 1081Z" fill="#002c59"></path><path d="M0 488L45.7 501.2C91.3 514.3 182.7 540.7 274.2 535.7C365.7 530.7 457.3 494.3 548.8 486.3C640.3 478.3 731.7 498.7 823 489.7C914.3 480.7 1005.7 442.3 1097 438.8C1188.3 435.3 1279.7 466.7 1371.2 486C1462.7 505.3 1554.3 512.7 1645.8 515.2C1737.3 517.7 1828.7 515.3 1874.3 514.2L1920 513L1920 1081L1874.3 1081C1828.7 1081 1737.3 1081 1645.8 1081C1554.3 1081 1462.7 1081 1371.2 1081C1279.7 1081 1188.3 1081 1097 1081C1005.7 1081 914.3 1081 823 1081C731.7 1081 640.3 1081 548.8 1081C457.3 1081 365.7 1081 274.2 1081C182.7 1081 91.3 1081 45.7 1081L0 1081Z" fill="#002a54"></path><path d="M0 512L45.7 524.2C91.3 536.3 182.7 560.7 274.2 562C365.7 563.3 457.3 541.7 548.8 545.2C640.3 548.7 731.7 577.3 823 584.3C914.3 591.3 1005.7 576.7 1097 560.5C1188.3 544.3 1279.7 526.7 1371.2 527.3C1462.7 528 1554.3 547 1645.8 541C1737.3 535 1828.7 504 1874.3 488.5L1920 473L1920 1081L1874.3 1081C1828.7 1081 1737.3 1081 1645.8 1081C1554.3 1081 1462.7 1081 1371.2 1081C1279.7 1081 1188.3 1081 1097 1081C1005.7 1081 914.3 1081 823 1081C731.7 1081 640.3 1081 548.8 1081C457.3 1081 365.7 1081 274.2 1081C182.7 1081 91.3 1081 45.7 1081L0 1081Z" fill="#00274f"></path><path d="M0 611L45.7 618.8C91.3 626.7 182.7 642.3 274.2 630.7C365.7 619 457.3 580 548.8 586.5C640.3 593 731.7 645 823 663.3C914.3 681.7 1005.7 666.3 1097 647.3C1188.3 628.3 1279.7 605.7 1371.2 606.2C1462.7 606.7 1554.3 630.3 1645.8 631.2C1737.3 632 1828.7 610 1874.3 599L1920 588L1920 1081L1874.3 1081C1828.7 1081 1737.3 1081 1645.8 1081C1554.3 1081 1462.7 1081 1371.2 1081C1279.7 1081 1188.3 1081 1097 1081C1005.7 1081 914.3 1081 823 1081C731.7 1081 640.3 1081 548.8 1081C457.3 1081 365.7 1081 274.2 1081C182.7 1081 91.3 1081 45.7 1081L0 1081Z" fill="#00254b"></path><path d="M0 717L45.7 723.8C91.3 730.7 182.7 744.3 274.2 739.5C365.7 734.7 457.3 711.3 548.8 697C640.3 682.7 731.7 677.3 823 689.7C914.3 702 1005.7 732 1097 739.5C1188.3 747 1279.7 732 1371.2 715.8C1462.7 699.7 1554.3 682.3 1645.8 669.8C1737.3 657.3 1828.7 649.7 1874.3 645.8L1920 642L1920 1081L1874.3 1081C1828.7 1081 1737.3 1081 1645.8 1081C1554.3 1081 1462.7 1081 1371.2 1081C1279.7 1081 1188.3 1081 1097 1081C1005.7 1081 914.3 1081 823 1081C731.7 1081 640.3 1081 548.8 1081C457.3 1081 365.7 1081 274.2 1081C182.7 1081 91.3 1081 45.7 1081L0 1081Z" fill="#002346"></path><path d="M0 783L45.7 782.5C91.3 782 182.7 781 274.2 773.7C365.7 766.3 457.3 752.7 548.8 759C640.3 765.3 731.7 791.7 823 802.2C914.3 812.7 1005.7 807.3 1097 798.8C1188.3 790.3 1279.7 778.7 1371.2 767C1462.7 755.3 1554.3 743.7 1645.8 753.7C1737.3 763.7 1828.7 795.3 1874.3 811.2L1920 827L1920 1081L1874.3 1081C1828.7 1081 1737.3 1081 1645.8 1081C1554.3 1081 1462.7 1081 1371.2 1081C1279.7 1081 1188.3 1081 1097 1081C1005.7 1081 914.3 1081 823 1081C731.7 1081 640.3 1081 548.8 1081C457.3 1081 365.7 1081 274.2 1081C182.7 1081 91.3 1081 45.7 1081L0 1081Z" fill="#002141"></path><path d="M0 865L45.7 856.7C91.3 848.3 182.7 831.7 274.2 823.2C365.7 814.7 457.3 814.3 548.8 814.5C640.3 814.7 731.7 815.3 823 828.5C914.3 841.7 1005.7 867.3 1097 874.7C1188.3 882 1279.7 871 1371.2 871.2C1462.7 871.3 1554.3 882.7 1645.8 879.7C1737.3 876.7 1828.7 859.3 1874.3 850.7L1920 842L1920 1081L1874.3 1081C1828.7 1081 1737.3 1081 1645.8 1081C1554.3 1081 1462.7 1081 1371.2 1081C1279.7 1081 1188.3 1081 1097 1081C1005.7 1081 914.3 1081 823 1081C731.7 1081 640.3 1081 548.8 1081C457.3 1081 365.7 1081 274.2 1081C182.7 1081 91.3 1081 45.7 1081L0 1081Z" fill="#001f3c"></path><path d="M0 954L45.7 947.2C91.3 940.3 182.7 926.7 274.2 915C365.7 903.3 457.3 893.7 548.8 891.3C640.3 889 731.7 894 823 904.8C914.3 915.7 1005.7 932.3 1097 931C1188.3 929.7 1279.7 910.3 1371.2 901.3C1462.7 892.3 1554.3 893.7 1645.8 899C1737.3 904.3 1828.7 913.7 1874.3 918.3L1920 923L1920 1081L1874.3 1081C1828.7 1081 1737.3 1081 1645.8 1081C1554.3 1081 1462.7 1081 1371.2 1081C1279.7 1081 1188.3 1081 1097 1081C1005.7 1081 914.3 1081 823 1081C731.7 1081 640.3 1081 548.8 1081C457.3 1081 365.7 1081 274.2 1081C182.7 1081 91.3 1081 45.7 1081L0 1081Z" fill="#011c38"></path><path d="M0 1008L45.7 1003C91.3 998 182.7 988 274.2 980.7C365.7 973.3 457.3 968.7 548.8 968.8C640.3 969 731.7 974 823 976.3C914.3 978.7 1005.7 978.3 1097 973C1188.3 967.7 1279.7 957.3 1371.2 963.8C1462.7 970.3 1554.3 993.7 1645.8 1003.8C1737.3 1014 1828.7 1011 1874.3 1009.5L1920 1008L1920 1081L1874.3 1081C1828.7 1081 1737.3 1081 1645.8 1081C1554.3 1081 1462.7 1081 1371.2 1081C1279.7 1081 1188.3 1081 1097 1081C1005.7 1081 914.3 1081 823 1081C731.7 1081 640.3 1081 548.8 1081C457.3 1081 365.7 1081 274.2 1081C182.7 1081 91.3 1081 45.7 1081L0 1081Z" fill="#011a33"></path></svg>