<svg id="visual" viewBox="0 0 1920 1080" width="1920" height="1080" xmlns="http://www.w3.org/2000/svg" xmlns:xlink="http://www.w3.org/1999/xlink" version="1.1"><rect x="0" y="0" width="1920" height="1080" fill="#001220"></rect><path d="M0 222L45.7 216C91.3 210 182.7 198 274.2 210.8C365.7 223.7 457.3 261.3 548.8 280.3C640.3 299.3 731.7 299.7 823 291.5C914.3 283.3 1005.7 266.7 1097 254.8C1188.3 243 1279.7 236 1371.2 238.3C1462.7 240.7 1554.3 252.3 1645.8 256.7C1737.3 261 1828.7 258 1874.3 256.5L1920 255L1920 1081L1874.3 1081C1828.7 1081 1737.3 1081 1645.8 1081C1554.3 1081 1462.7 1081 1371.2 1081C1279.7 1081 1188.3 1081 1097 1081C1005.7 1081 914.3 1081 823 1081C731.7 1081 640.3 1081 548.8 1081C457.3 1081 365.7 1081 274.2 1081C182.7 1081 91.3 1081 45.7 1081L0 1081Z" fill="#003365"></path><path d="M0 263L45.7 263.5C91.3 264 182.7 265 274.2 269.8C365.7 274.7 457.3 283.3 548.8 295.8C640.3 308.3 731.7 324.7 823 345C914.3 365.3 1005.7 389.7 1097 378.2C1188.3 366.7 1279.7 319.3 1371.2 304.7C1462.7 290 1554.3 308 1645.8 328.3C1737.3 348.7 1828.7 371.3 1874.3 382.7L1920 394L1920 1081L1874.3 1081C1828.7 1081 1737.3 1081 1645.8 1081C1554.3 1081 1462.7 1081 1371.2 1081C1279.7 1081 1188.3 1081 1097 1081C1005.7 1081 914.3 1081 823 1081C731.7 1081 640.3 1081 548.8 1081C457.3 1081 365.7 1081 274.2 1081C182.7 1081 91.3 1081 45.7 1081L0 1081Z" fill="#00305f"></path><path d="M0 492L45.7 470.7C91.3 449.3 182.7 406.7 274.2 388.5C365.7 370.3 457.3 376.7 548.8 387.7C640.3 398.7 731.7 414.3 823 437C914.3 459.7 1005.7 489.3 1097 489.8C1188.3 490.3 1279.7 461.7 1371.2 431.7C1462.7 401.7 1554.3 370.3 1645.8 379.7C1737.3 389 1828.7 439 1874.3 464L1920 489L1920 1081L1874.3 1081C1828.7 1081 1737.3 1081 1645.8 1081C1554.3 1081 1462.7 1081 1371.2 1081C1279.7 1081 1188.3 1081 1097 1081C1005.7 1081 914.3 1081 823 1081C731.7 1081 640.3 1081 548.8 1081C457.3 1081 365.7 1081 274.2 1081C182.7 1081 91.3 1081 45.7 1081L0 1081Z" fill="#002d59"></path><path d="M0 469L45.7 482.7C91.3 496.3 182.7 523.7 274.2 538C365.7 552.3 457.3 553.7 548.8 538.3C640.3 523 731.7 491 823 474.7C914.3 458.3 1005.7 457.7 1097 469.8C1188.3 482 1279.7 507 1371.2 528.5C1462.7 550 1554.3 568 1645.8 578.5C1737.3 589 1828.7 592 1874.3 593.5L1920 595L1920 1081L1874.3 1081C1828.7 1081 1737.3 1081 1645.8 1081C1554.3 1081 1462.7 1081 1371.2 1081C1279.7 1081 1188.3 1081 1097 1081C1005.7 1081 914.3 1081 823 1081C731.7 1081 640.3 1081 548.8 1081C457.3 1081 365.7 1081 274.2 1081C182.7 1081 91.3 1081 45.7 1081L0 1081Z" fill="#002a54"></path><path d="M0 631L45.7 632.3C91.3 633.7 182.7 636.3 274.2 625C365.7 613.7 457.3 588.3 548.8 588.3C640.3 588.3 731.7 613.7 823 614.8C914.3 616 1005.7 593 1097 587.8C1188.3 582.7 1279.7 595.3 1371.2 591.3C1462.7 587.3 1554.3 566.7 1645.8 564.5C1737.3 562.3 1828.7 578.7 1874.3 586.8L1920 595L1920 1081L1874.3 1081C1828.7 1081 1737.3 1081 1645.8 1081C1554.3 1081 1462.7 1081 1371.2 1081C1279.7 1081 1188.3 1081 1097 1081C1005.7 1081 914.3 1081 823 1081C731.7 1081 640.3 1081 548.8 1081C457.3 1081 365.7 1081 274.2 1081C182.7 1081 91.3 1081 45.7 1081L0 1081Z" fill="#00274e"></path><path d="M0 624L45.7 633.8C91.3 643.7 182.7 663.3 274.2 670.3C365.7 677.3 457.3 671.7 548.8 665.7C640.3 659.7 731.7 653.3 823 658.2C914.3 663 1005.7 679 1097 679.5C1188.3 680 1279.7 665 1371.2 656.2C1462.7 647.3 1554.3 644.7 1645.8 644C1737.3 643.3 1828.7 644.7 1874.3 645.3L1920 646L1920 1081L1874.3 1081C1828.7 1081 1737.3 1081 1645.8 1081C1554.3 1081 1462.7 1081 1371.2 1081C1279.7 1081 1188.3 1081 1097 1081C1005.7 1081 914.3 1081 823 1081C731.7 1081 640.3 1081 548.8 1081C457.3 1081 365.7 1081 274.2 1081C182.7 1081 91.3 1081 45.7 1081L0 1081Z" fill="#002548"></path><path d="M0 804L45.7 791.2C91.3 778.3 182.7 752.7 274.2 743.7C365.7 734.7 457.3 742.3 548.8 744.3C640.3 746.3 731.7 742.7 823 751.2C914.3 759.7 1005.7 780.3 1097 780.2C1188.3 780 1279.7 759 1371.2 739.5C1462.7 720 1554.3 702 1645.8 707.5C1737.3 713 1828.7 742 1874.3 756.5L1920 771L1920 1081L1874.3 1081C1828.7 1081 1737.3 1081 1645.8 1081C1554.3 1081 1462.7 1081 1371.2 1081C1279.7 1081 1188.3 1081 1097 1081C1005.7 1081 914.3 1081 823 1081C731.7 1081 640.3 1081 548.8 1081C457.3 1081 365.7 1081 274.2 1081C182.7 1081 91.3 1081 45.7 1081L0 1081Z" fill="#002243"></path><path d="M0 777L45.7 791C91.3 805 182.7 833 274.2 849.3C365.7 865.7 457.3 870.3 548.8 863.7C640.3 857 731.7 839 823 823.8C914.3 808.7 1005.7 796.3 1097 797.7C1188.3 799 1279.7 814 1371.2 822.3C1462.7 830.7 1554.3 832.3 1645.8 822.7C1737.3 813 1828.7 792 1874.3 781.5L1920 771L1920 1081L1874.3 1081C1828.7 1081 1737.3 1081 1645.8 1081C1554.3 1081 1462.7 1081 1371.2 1081C1279.7 1081 1188.3 1081 1097 1081C1005.7 1081 914.3 1081 823 1081C731.7 1081 640.3 1081 548.8 1081C457.3 1081 365.7 1081 274.2 1081C182.7 1081 91.3 1081 45.7 1081L0 1081Z" fill="#001f3e"></path><path d="M0 913L45.7 918C91.3 923 182.7 933 274.2 934.3C365.7 935.7 457.3 928.3 548.8 929.3C640.3 930.3 731.7 939.7 823 935.5C914.3 931.3 1005.7 913.7 1097 905.3C1188.3 897 1279.7 898 1371.2 892.7C1462.7 887.3 1554.3 875.7 1645.8 870C1737.3 864.3 1828.7 864.7 1874.3 864.8L1920 865L1920 1081L1874.3 1081C1828.7 1081 1737.3 1081 1645.8 1081C1554.3 1081 1462.7 1081 1371.2 1081C1279.7 1081 1188.3 1081 1097 1081C1005.7 1081 914.3 1081 823 1081C731.7 1081 640.3 1081 548.8 1081C457.3 1081 365.7 1081 274.2 1081C182.7 1081 91.3 1081 45.7 1081L0 1081Z" fill="#011d38"></path><path d="M0 992L45.7 986.3C91.3 980.7 182.7 969.3 274.2 961.7C365.7 954 457.3 950 548.8 959.8C640.3 969.7 731.7 993.3 823 1003.8C914.3 1014.3 1005.7 1011.7 1097 1009.7C1188.3 1007.7 1279.7 1006.3 1371.2 1004.7C1462.7 1003 1554.3 1001 1645.8 999C1737.3 997 1828.7 995 1874.3 994L1920 993L1920 1081L1874.3 1081C1828.7 1081 1737.3 1081 1645.8 1081C1554.3 1081 1462.7 1081 1371.2 1081C1279.7 1081 1188.3 1081 1097 1081C1005.7 1081 914.3 1081 823 1081C731.7 1081 640.3 1081 548.8 1081C457.3 1081 365.7 1081 274.2 1081C182.7 1081 91.3 1081 45.7 1081L0 1081Z" fill="#011a33"></path></svg>