<svg id="visual" viewBox="0 0 1920 1080" width="1920" height="1080" xmlns="http://www.w3.org/2000/svg" xmlns:xlink="http://www.w3.org/1999/xlink" version="1.1"><rect x="0" y="0" width="1920" height="1080" fill="#174264"></rect><path d="M0 307L45.7 311.8C91.3 316.7 182.7 326.3 274.2 350.2C365.7 374 457.3 412 548.8 437.7C640.3 463.3 731.7 476.7 823 470.5C914.3 464.3 1005.7 438.7 1097 421.8C1188.3 405 1279.7 397 1371.2 400.5C1462.7 404 1554.3 419 1645.8 432.2C1737.3 445.3 1828.7 456.7 1874.3 462.3L1920 468L1920 1081L1874.3 1081C1828.7 1081 1737.3 1081 1645.8 1081C1554.3 1081 1462.7 1081 1371.2 1081C1279.7 1081 1188.3 1081 1097 1081C1005.7 1081 914.3 1081 823 1081C731.7 1081 640.3 1081 548.8 1081C457.3 1081 365.7 1081 274.2 1081C182.7 1081 91.3 1081 45.7 1081L0 1081Z" fill="#003060"></path><path d="M0 423L45.7 410.7C91.3 398.3 182.7 373.7 274.2 366.5C365.7 359.3 457.3 369.7 548.8 380.3C640.3 391 731.7 402 823 402.7C914.3 403.3 1005.7 393.7 1097 396.8C1188.3 400 1279.7 416 1371.2 432.2C1462.7 448.3 1554.3 464.7 1645.8 461.3C1737.3 458 1828.7 435 1874.3 423.5L1920 412L1920 1081L1874.3 1081C1828.7 1081 1737.3 1081 1645.8 1081C1554.3 1081 1462.7 1081 1371.2 1081C1279.7 1081 1188.3 1081 1097 1081C1005.7 1081 914.3 1081 823 1081C731.7 1081 640.3 1081 548.8 1081C457.3 1081 365.7 1081 274.2 1081C182.7 1081 91.3 1081 45.7 1081L0 1081Z" fill="#002e5b"></path><path d="M0 543L45.7 552.8C91.3 562.7 182.7 582.3 274.2 576.3C365.7 570.3 457.3 538.7 548.8 510.5C640.3 482.3 731.7 457.7 823 453C914.3 448.3 1005.7 463.7 1097 479C1188.3 494.3 1279.7 509.7 1371.2 503C1462.7 496.3 1554.3 467.7 1645.8 480C1737.3 492.3 1828.7 545.7 1874.3 572.3L1920 599L1920 1081L1874.3 1081C1828.7 1081 1737.3 1081 1645.8 1081C1554.3 1081 1462.7 1081 1371.2 1081C1279.7 1081 1188.3 1081 1097 1081C1005.7 1081 914.3 1081 823 1081C731.7 1081 640.3 1081 548.8 1081C457.3 1081 365.7 1081 274.2 1081C182.7 1081 91.3 1081 45.7 1081L0 1081Z" fill="#002c57"></path><path d="M0 627L45.7 608.2C91.3 589.3 182.7 551.7 274.2 545C365.7 538.3 457.3 562.7 548.8 571.7C640.3 580.7 731.7 574.3 823 586.3C914.3 598.3 1005.7 628.7 1097 616C1188.3 603.3 1279.7 547.7 1371.2 536.7C1462.7 525.7 1554.3 559.3 1645.8 559.8C1737.3 560.3 1828.7 527.7 1874.3 511.3L1920 495L1920 1081L1874.3 1081C1828.7 1081 1737.3 1081 1645.8 1081C1554.3 1081 1462.7 1081 1371.2 1081C1279.7 1081 1188.3 1081 1097 1081C1005.7 1081 914.3 1081 823 1081C731.7 1081 640.3 1081 548.8 1081C457.3 1081 365.7 1081 274.2 1081C182.7 1081 91.3 1081 45.7 1081L0 1081Z" fill="#002952"></path><path d="M0 703L45.7 682.3C91.3 661.7 182.7 620.3 274.2 614.5C365.7 608.7 457.3 638.3 548.8 643.8C640.3 649.3 731.7 630.7 823 634.5C914.3 638.3 1005.7 664.7 1097 664.3C1188.3 664 1279.7 637 1371.2 626C1462.7 615 1554.3 620 1645.8 616.8C1737.3 613.7 1828.7 602.3 1874.3 596.7L1920 591L1920 1081L1874.3 1081C1828.7 1081 1737.3 1081 1645.8 1081C1554.3 1081 1462.7 1081 1371.2 1081C1279.7 1081 1188.3 1081 1097 1081C1005.7 1081 914.3 1081 823 1081C731.7 1081 640.3 1081 548.8 1081C457.3 1081 365.7 1081 274.2 1081C182.7 1081 91.3 1081 45.7 1081L0 1081Z" fill="#00274e"></path><path d="M0 747L45.7 727.7C91.3 708.3 182.7 669.7 274.2 673C365.7 676.3 457.3 721.7 548.8 739.5C640.3 757.3 731.7 747.7 823 730C914.3 712.3 1005.7 686.7 1097 683.7C1188.3 680.7 1279.7 700.3 1371.2 715.8C1462.7 731.3 1554.3 742.7 1645.8 739.3C1737.3 736 1828.7 718 1874.3 709L1920 700L1920 1081L1874.3 1081C1828.7 1081 1737.3 1081 1645.8 1081C1554.3 1081 1462.7 1081 1371.2 1081C1279.7 1081 1188.3 1081 1097 1081C1005.7 1081 914.3 1081 823 1081C731.7 1081 640.3 1081 548.8 1081C457.3 1081 365.7 1081 274.2 1081C182.7 1081 91.3 1081 45.7 1081L0 1081Z" fill="#002549"></path><path d="M0 784L45.7 788.3C91.3 792.7 182.7 801.3 274.2 798.5C365.7 795.7 457.3 781.3 548.8 776C640.3 770.7 731.7 774.3 823 781.8C914.3 789.3 1005.7 800.7 1097 798.7C1188.3 796.7 1279.7 781.3 1371.2 766.7C1462.7 752 1554.3 738 1645.8 726C1737.3 714 1828.7 704 1874.3 699L1920 694L1920 1081L1874.3 1081C1828.7 1081 1737.3 1081 1645.8 1081C1554.3 1081 1462.7 1081 1371.2 1081C1279.7 1081 1188.3 1081 1097 1081C1005.7 1081 914.3 1081 823 1081C731.7 1081 640.3 1081 548.8 1081C457.3 1081 365.7 1081 274.2 1081C182.7 1081 91.3 1081 45.7 1081L0 1081Z" fill="#002345"></path><path d="M0 772L45.7 775.7C91.3 779.3 182.7 786.7 274.2 787.8C365.7 789 457.3 784 548.8 782.2C640.3 780.3 731.7 781.7 823 794C914.3 806.3 1005.7 829.7 1097 827.5C1188.3 825.3 1279.7 797.7 1371.2 786.8C1462.7 776 1554.3 782 1645.8 788C1737.3 794 1828.7 800 1874.3 803L1920 806L1920 1081L1874.3 1081C1828.7 1081 1737.3 1081 1645.8 1081C1554.3 1081 1462.7 1081 1371.2 1081C1279.7 1081 1188.3 1081 1097 1081C1005.7 1081 914.3 1081 823 1081C731.7 1081 640.3 1081 548.8 1081C457.3 1081 365.7 1081 274.2 1081C182.7 1081 91.3 1081 45.7 1081L0 1081Z" fill="#002140"></path><path d="M0 867L45.7 873.3C91.3 879.7 182.7 892.3 274.2 890.3C365.7 888.3 457.3 871.7 548.8 859.2C640.3 846.7 731.7 838.3 823 835.8C914.3 833.3 1005.7 836.7 1097 848.8C1188.3 861 1279.7 882 1371.2 889.3C1462.7 896.7 1554.3 890.3 1645.8 891.3C1737.3 892.3 1828.7 900.7 1874.3 904.8L1920 909L1920 1081L1874.3 1081C1828.7 1081 1737.3 1081 1645.8 1081C1554.3 1081 1462.7 1081 1371.2 1081C1279.7 1081 1188.3 1081 1097 1081C1005.7 1081 914.3 1081 823 1081C731.7 1081 640.3 1081 548.8 1081C457.3 1081 365.7 1081 274.2 1081C182.7 1081 91.3 1081 45.7 1081L0 1081Z" fill="#001e3c"></path><path d="M0 927L45.7 932.3C91.3 937.7 182.7 948.3 274.2 943.8C365.7 939.3 457.3 919.7 548.8 919.2C640.3 918.7 731.7 937.3 823 943C914.3 948.7 1005.7 941.3 1097 936C1188.3 930.7 1279.7 927.3 1371.2 929.8C1462.7 932.3 1554.3 940.7 1645.8 948.7C1737.3 956.7 1828.7 964.3 1874.3 968.2L1920 972L1920 1081L1874.3 1081C1828.7 1081 1737.3 1081 1645.8 1081C1554.3 1081 1462.7 1081 1371.2 1081C1279.7 1081 1188.3 1081 1097 1081C1005.7 1081 914.3 1081 823 1081C731.7 1081 640.3 1081 548.8 1081C457.3 1081 365.7 1081 274.2 1081C182.7 1081 91.3 1081 45.7 1081L0 1081Z" fill="#011c37"></path><path d="M0 1026L45.7 1024.8C91.3 1023.7 182.7 1021.3 274.2 1013.7C365.7 1006 457.3 993 548.8 984.8C640.3 976.7 731.7 973.3 823 981.5C914.3 989.7 1005.7 1009.3 1097 1010.5C1188.3 1011.7 1279.7 994.3 1371.2 991.5C1462.7 988.7 1554.3 1000.3 1645.8 1002.7C1737.3 1005 1828.7 998 1874.3 994.5L1920 991L1920 1081L1874.3 1081C1828.7 1081 1737.3 1081 1645.8 1081C1554.3 1081 1462.7 1081 1371.2 1081C1279.7 1081 1188.3 1081 1097 1081C1005.7 1081 914.3 1081 823 1081C731.7 1081 640.3 1081 548.8 1081C457.3 1081 365.7 1081 274.2 1081C182.7 1081 91.3 1081 45.7 1081L0 1081Z" fill="#011a33"></path></svg>