<svg id="visual" viewBox="0 0 1920 1080" width="1920" height="1080" xmlns="http://www.w3.org/2000/svg" xmlns:xlink="http://www.w3.org/1999/xlink" version="1.1"><rect x="0" y="0" width="1920" height="1080" fill="#173e5c"></rect><path d="M0 306L45.7 327.7C91.3 349.3 182.7 392.7 274.2 396.5C365.7 400.3 457.3 364.7 548.8 369.5C640.3 374.3 731.7 419.7 823 424.2C914.3 428.7 1005.7 392.3 1097 362C1188.3 331.7 1279.7 307.3 1371.2 311C1462.7 314.7 1554.3 346.3 1645.8 348.3C1737.3 350.3 1828.7 322.7 1874.3 308.8L1920 295L1920 1081L1874.3 1081C1828.7 1081 1737.3 1081 1645.8 1081C1554.3 1081 1462.7 1081 1371.2 1081C1279.7 1081 1188.3 1081 1097 1081C1005.7 1081 914.3 1081 823 1081C731.7 1081 640.3 1081 548.8 1081C457.3 1081 365.7 1081 274.2 1081C182.7 1081 91.3 1081 45.7 1081L0 1081Z" fill="#00193e"></path><path d="M0 513L45.7 519.7C91.3 526.3 182.7 539.7 274.2 519.8C365.7 500 457.3 447 548.8 438.2C640.3 429.3 731.7 464.7 823 472.3C914.3 480 1005.7 460 1097 460.5C1188.3 461 1279.7 482 1371.2 494.7C1462.7 507.3 1554.3 511.7 1645.8 486.7C1737.3 461.7 1828.7 407.3 1874.3 380.2L1920 353L1920 1081L1874.3 1081C1828.7 1081 1737.3 1081 1645.8 1081C1554.3 1081 1462.7 1081 1371.2 1081C1279.7 1081 1188.3 1081 1097 1081C1005.7 1081 914.3 1081 823 1081C731.7 1081 640.3 1081 548.8 1081C457.3 1081 365.7 1081 274.2 1081C182.7 1081 91.3 1081 45.7 1081L0 1081Z" fill="#001b41"></path><path d="M0 494L45.7 485.7C91.3 477.3 182.7 460.7 274.2 478C365.7 495.3 457.3 546.7 548.8 568C640.3 589.3 731.7 580.7 823 550.5C914.3 520.3 1005.7 468.7 1097 444.3C1188.3 420 1279.7 423 1371.2 450.3C1462.7 477.7 1554.3 529.3 1645.8 533.7C1737.3 538 1828.7 495 1874.3 473.5L1920 452L1920 1081L1874.3 1081C1828.7 1081 1737.3 1081 1645.8 1081C1554.3 1081 1462.7 1081 1371.2 1081C1279.7 1081 1188.3 1081 1097 1081C1005.7 1081 914.3 1081 823 1081C731.7 1081 640.3 1081 548.8 1081C457.3 1081 365.7 1081 274.2 1081C182.7 1081 91.3 1081 45.7 1081L0 1081Z" fill="#001e44"></path><path d="M0 608L45.7 607.8C91.3 607.7 182.7 607.3 274.2 595C365.7 582.7 457.3 558.3 548.8 538.7C640.3 519 731.7 504 823 515.2C914.3 526.3 1005.7 563.7 1097 565.2C1188.3 566.7 1279.7 532.3 1371.2 528C1462.7 523.7 1554.3 549.3 1645.8 551.3C1737.3 553.3 1828.7 531.7 1874.3 520.8L1920 510L1920 1081L1874.3 1081C1828.7 1081 1737.3 1081 1645.8 1081C1554.3 1081 1462.7 1081 1371.2 1081C1279.7 1081 1188.3 1081 1097 1081C1005.7 1081 914.3 1081 823 1081C731.7 1081 640.3 1081 548.8 1081C457.3 1081 365.7 1081 274.2 1081C182.7 1081 91.3 1081 45.7 1081L0 1081Z" fill="#002046"></path><path d="M0 570L45.7 579.7C91.3 589.3 182.7 608.7 274.2 617.5C365.7 626.3 457.3 624.7 548.8 616.3C640.3 608 731.7 593 823 598C914.3 603 1005.7 628 1097 646.8C1188.3 665.7 1279.7 678.3 1371.2 685.5C1462.7 692.7 1554.3 694.3 1645.8 691.8C1737.3 689.3 1828.7 682.7 1874.3 679.3L1920 676L1920 1081L1874.3 1081C1828.7 1081 1737.3 1081 1645.8 1081C1554.3 1081 1462.7 1081 1371.2 1081C1279.7 1081 1188.3 1081 1097 1081C1005.7 1081 914.3 1081 823 1081C731.7 1081 640.3 1081 548.8 1081C457.3 1081 365.7 1081 274.2 1081C182.7 1081 91.3 1081 45.7 1081L0 1081Z" fill="#002349"></path><path d="M0 659L45.7 660.3C91.3 661.7 182.7 664.3 274.2 674.5C365.7 684.7 457.3 702.3 548.8 716.3C640.3 730.3 731.7 740.7 823 730.2C914.3 719.7 1005.7 688.3 1097 690.8C1188.3 693.3 1279.7 729.7 1371.2 727.2C1462.7 724.7 1554.3 683.3 1645.8 677.3C1737.3 671.3 1828.7 700.7 1874.3 715.3L1920 730L1920 1081L1874.3 1081C1828.7 1081 1737.3 1081 1645.8 1081C1554.3 1081 1462.7 1081 1371.2 1081C1279.7 1081 1188.3 1081 1097 1081C1005.7 1081 914.3 1081 823 1081C731.7 1081 640.3 1081 548.8 1081C457.3 1081 365.7 1081 274.2 1081C182.7 1081 91.3 1081 45.7 1081L0 1081Z" fill="#00254c"></path><path d="M0 772L45.7 771.5C91.3 771 182.7 770 274.2 776.8C365.7 783.7 457.3 798.3 548.8 786.8C640.3 775.3 731.7 737.7 823 718.3C914.3 699 1005.7 698 1097 709.3C1188.3 720.7 1279.7 744.3 1371.2 758.8C1462.7 773.3 1554.3 778.7 1645.8 767C1737.3 755.3 1828.7 726.7 1874.3 712.3L1920 698L1920 1081L1874.3 1081C1828.7 1081 1737.3 1081 1645.8 1081C1554.3 1081 1462.7 1081 1371.2 1081C1279.7 1081 1188.3 1081 1097 1081C1005.7 1081 914.3 1081 823 1081C731.7 1081 640.3 1081 548.8 1081C457.3 1081 365.7 1081 274.2 1081C182.7 1081 91.3 1081 45.7 1081L0 1081Z" fill="#00274f"></path><path d="M0 788L45.7 797.8C91.3 807.7 182.7 827.3 274.2 832.5C365.7 837.7 457.3 828.3 548.8 814C640.3 799.7 731.7 780.3 823 770.5C914.3 760.7 1005.7 760.3 1097 769.2C1188.3 778 1279.7 796 1371.2 814C1462.7 832 1554.3 850 1645.8 850.2C1737.3 850.3 1828.7 832.7 1874.3 823.8L1920 815L1920 1081L1874.3 1081C1828.7 1081 1737.3 1081 1645.8 1081C1554.3 1081 1462.7 1081 1371.2 1081C1279.7 1081 1188.3 1081 1097 1081C1005.7 1081 914.3 1081 823 1081C731.7 1081 640.3 1081 548.8 1081C457.3 1081 365.7 1081 274.2 1081C182.7 1081 91.3 1081 45.7 1081L0 1081Z" fill="#002a51"></path><path d="M0 885L45.7 889.5C91.3 894 182.7 903 274.2 903.3C365.7 903.7 457.3 895.3 548.8 895C640.3 894.7 731.7 902.3 823 905C914.3 907.7 1005.7 905.3 1097 904.8C1188.3 904.3 1279.7 905.7 1371.2 899.5C1462.7 893.3 1554.3 879.7 1645.8 875.7C1737.3 871.7 1828.7 877.3 1874.3 880.2L1920 883L1920 1081L1874.3 1081C1828.7 1081 1737.3 1081 1645.8 1081C1554.3 1081 1462.7 1081 1371.2 1081C1279.7 1081 1188.3 1081 1097 1081C1005.7 1081 914.3 1081 823 1081C731.7 1081 640.3 1081 548.8 1081C457.3 1081 365.7 1081 274.2 1081C182.7 1081 91.3 1081 45.7 1081L0 1081Z" fill="#002c54"></path><path d="M0 939L45.7 932.2C91.3 925.3 182.7 911.7 274.2 917.5C365.7 923.3 457.3 948.7 548.8 957.3C640.3 966 731.7 958 823 958C914.3 958 1005.7 966 1097 966.2C1188.3 966.3 1279.7 958.7 1371.2 953.3C1462.7 948 1554.3 945 1645.8 939C1737.3 933 1828.7 924 1874.3 919.5L1920 915L1920 1081L1874.3 1081C1828.7 1081 1737.3 1081 1645.8 1081C1554.3 1081 1462.7 1081 1371.2 1081C1279.7 1081 1188.3 1081 1097 1081C1005.7 1081 914.3 1081 823 1081C731.7 1081 640.3 1081 548.8 1081C457.3 1081 365.7 1081 274.2 1081C182.7 1081 91.3 1081 45.7 1081L0 1081Z" fill="#002f56"></path><path d="M0 996L45.7 992C91.3 988 182.7 980 274.2 980.3C365.7 980.7 457.3 989.3 548.8 997.3C640.3 1005.3 731.7 1012.7 823 1011.5C914.3 1010.3 1005.7 1000.7 1097 999.7C1188.3 998.7 1279.7 1006.3 1371.2 1004.7C1462.7 1003 1554.3 992 1645.8 986.8C1737.3 981.7 1828.7 982.3 1874.3 982.7L1920 983L1920 1081L1874.3 1081C1828.7 1081 1737.3 1081 1645.8 1081C1554.3 1081 1462.7 1081 1371.2 1081C1279.7 1081 1188.3 1081 1097 1081C1005.7 1081 914.3 1081 823 1081C731.7 1081 640.3 1081 548.8 1081C457.3 1081 365.7 1081 274.2 1081C182.7 1081 91.3 1081 45.7 1081L0 1081Z" fill="#003159"></path></svg>